<?xml version="1.0" encoding="utf-8"?>
<!-- Generator: Adobe Illustrator 23.0.1, SVG Export Plug-In . SVG Version: 6.00 Build 0)  -->
<svg version="1.1" id="Layer_1" xmlns="http://www.w3.org/2000/svg" xmlns:xlink="http://www.w3.org/1999/xlink" x="0px" y="0px"
	 viewBox="0 0 447.8 388.3" style="enable-background:new 0 0 447.8 388.3;" xml:space="preserve">
<style type="text/css">
	.st0{fill:#F2F5F8;}
	.st1{fill:#CBD6E2;}
	.st2{fill:none;}
</style>
<title>page-layout1</title>
<g>
	<g id="Layer_1-2">
		<rect class="st0" width="447.8" height="388.3"/>
		<path id="Path" class="st1" d="M334.2,135.6c-8-3.1-17.1-1-22.8,5.5L229,237.3c-2.4,2.7-6.4,3-8.3,1.7l-40.6-45.3
			c-4.4-3.4-10-4.9-15.6-4.1c-5.4,0.7-10.2,3.6-13.4,8l-46.3,54.9c-7,9-5.4,22,3.6,29c3.6,2.8,8,4.4,12.6,4.4h205.7
			c11.4,0,20.6-9.3,20.6-20.7V154.9C347.4,146.3,342.2,138.7,334.2,135.6"/>
		<path class="st1" d="M123.4,148.3c12.7,0,22.9-10.3,22.9-22.9s-10.3-22.9-22.9-22.9c-12.7,0-22.9,10.3-22.9,22.9l0,0l0,0
			C100.4,138,110.7,148.3,123.4,148.3C123.4,148.3,123.4,148.3,123.4,148.3L123.4,148.3"/>
		<rect x="-99.6" y="-290.3" class="st2" width="1000" height="1000"/>
	</g>
</g>
</svg>
